<svg width="34" height="28" viewBox="0 0 34 28" fill="none" xmlns="http://www.w3.org/2000/svg">
<path id="Vector" d="M30.75 0.25H3.25C2.58696 0.25 1.95107 0.513392 1.48223 0.982233C1.01339 1.45107 0.75 2.08696 0.75 2.75V25.25C0.75 25.913 1.01339 26.5489 1.48223 27.0178C1.95107 27.4866 2.58696 27.75 3.25 27.75H30.75C31.413 27.75 32.0489 27.4866 32.5178 27.0178C32.9866 26.5489 33.25 25.913 33.25 25.25V2.75C33.25 2.08696 32.9866 1.45107 32.5178 0.982233C32.0489 0.513392 31.413 0.25 30.75 0.25ZM30.75 25.25H3.25V2.75H30.75V25.25ZM24.5 7.75C24.5 9.73912 23.7098 11.6468 22.3033 13.0533C20.8968 14.4598 18.9891 15.25 17 15.25C15.0109 15.25 13.1032 14.4598 11.6967 13.0533C10.2902 11.6468 9.5 9.73912 9.5 7.75C9.5 7.41848 9.6317 7.10054 9.86612 6.86612C10.1005 6.6317 10.4185 6.5 10.75 6.5C11.0815 6.5 11.3995 6.6317 11.6339 6.86612C11.8683 7.10054 12 7.41848 12 7.75C12 9.07608 12.5268 10.3479 13.4645 11.2855C14.4021 12.2232 15.6739 12.75 17 12.75C18.3261 12.75 19.5979 12.2232 20.5355 11.2855C21.4732 10.3479 22 9.07608 22 7.75C22 7.41848 22.1317 7.10054 22.3661 6.86612C22.6005 6.6317 22.9185 6.5 23.25 6.5C23.5815 6.5 23.8995 6.6317 24.1339 6.86612C24.3683 7.10054 24.5 7.41848 24.5 7.75Z" fill="#6C7784"/>
</svg>
