<svg width="33" height="33" viewBox="0 0 33 33" fill="none" xmlns="http://www.w3.org/2000/svg">
<path id="Vector" fill-rule="evenodd" clip-rule="evenodd" d="M12.5123 33C10.6803 33 9.19114 33 7.99572 32.8562C6.74627 32.7072 5.6758 32.3891 4.73871 31.6546C3.80332 30.9235 3.236 29.9589 2.78687 28.7811C2.35801 27.6523 1.99837 26.2054 1.55431 24.4234L1.50872 24.2457C0.806332 21.428 0.24408 19.1772 0.0634171 17.3918C-0.122312 15.5472 0.0634168 13.9429 1.11194 12.5942C1.58977 11.9815 2.16215 11.528 2.81727 11.1929L3.87761 7.29554C4.27777 5.82154 4.56987 4.74862 5.18784 3.91262C5.80197 3.08403 6.63635 2.44538 7.59556 2.06969C8.39926 1.75492 9.29751 1.70246 10.4524 1.694C10.6919 1.18711 11.0701 0.758797 11.543 0.458907C12.0158 0.159017 12.5639 -0.00012402 13.1235 7.25172e-08H19.8773C21.0558 7.25172e-08 22.0739 0.693846 22.5484 1.69231C23.7016 1.70246 24.6015 1.75492 25.4052 2.06969C26.3647 2.44584 27.1991 3.0851 27.813 3.91431C28.4326 4.74862 28.723 5.82154 29.1232 7.29554L30.1835 11.1929C30.837 11.5297 31.411 11.9815 31.8889 12.5942C32.9374 13.9429 33.1231 15.5489 32.9357 17.3902C32.755 19.1772 32.1928 21.428 31.4921 24.244L31.4465 24.4234C31.0024 26.2054 30.6411 27.6523 30.2139 28.7811C29.7648 29.9589 29.1975 30.9235 28.2604 31.6563C27.325 32.3891 26.2528 32.7055 25.0051 32.8578C23.808 33 22.3205 33 20.4885 33H12.5123ZM8.51745 4.43385C8.88891 4.28831 9.33803 4.246 10.4541 4.23415C10.9302 5.23261 11.9467 5.92308 13.1218 5.92308H19.8756C21.0541 5.92308 22.0706 5.23261 22.5467 4.23415C23.6628 4.246 24.1119 4.28831 24.4834 4.43385C25 4.63692 25.4491 4.98046 25.7801 5.42723C26.0772 5.82831 26.2512 6.38846 26.7425 8.19415L27.3402 10.3891C25.5876 10.1538 23.3251 10.1538 20.5138 10.1538H12.4853C9.67572 10.1538 7.41321 10.1538 5.6606 10.3891L6.25831 8.19415C6.74796 6.38846 6.92356 5.82831 7.22072 5.42723C7.55134 4.98065 8.00073 4.63638 8.51745 4.43385ZM13.7989 12.6923H12.5933C9.56597 12.6923 7.43516 12.6957 5.86491 12.9225C5.67777 12.9495 5.49141 12.9816 5.30603 13.0189L9.00372 18.458L13.7989 12.6923ZM3.0604 14.2238C2.62478 14.8229 2.43399 15.6403 2.58426 17.1346C2.74466 18.7169 3.25964 20.79 3.99242 23.7312L4.13763 24.3117L7.31865 20.4854L3.0604 14.2238ZM4.95146 27.2969C5.01899 27.5034 5.08653 27.6963 5.15576 27.8774C5.51202 28.8166 5.86153 29.3125 6.30052 29.6543C6.73783 29.9978 7.30177 30.2162 8.29795 30.3363C9.3279 30.4598 10.6618 30.4615 12.5933 30.4615H14.1062L8.80111 22.6651L4.95146 27.2969ZM18.898 30.4615L24.2216 22.6346L28.051 27.2952C27.9835 27.5017 27.916 27.6963 27.8484 27.8774C27.4905 28.8166 27.141 29.3125 26.7037 29.6543C26.2664 29.9978 25.7007 30.2162 24.7062 30.3363C23.6763 30.4598 22.3424 30.4615 20.4108 30.4615H18.898ZM28.8699 24.2982L29.0101 23.7312C29.7445 20.7883 30.2595 18.7169 30.4182 17.1329C30.5702 15.6403 30.3794 14.8229 29.9438 14.2238L25.7092 20.4515L28.8699 24.2982ZM27.6982 13.0189C27.5128 12.9816 27.3264 12.9495 27.1393 12.9225C25.569 12.6957 23.4382 12.6923 20.4108 12.6923H19.3336L24.0309 18.4089L27.6982 13.0189ZM13.1235 2.53846C13.0116 2.53846 12.9042 2.58304 12.825 2.66238C12.7459 2.74172 12.7014 2.84933 12.7014 2.96154C12.7014 3.07375 12.7459 3.18136 12.825 3.2607C12.9042 3.34004 13.0116 3.38462 13.1235 3.38462H19.8773C19.9892 3.38462 20.0966 3.34004 20.1758 3.2607C20.2549 3.18136 20.2994 3.07375 20.2994 2.96154C20.2994 2.84933 20.2549 2.74172 20.1758 2.66238C20.0966 2.58304 19.9892 2.53846 19.8773 2.53846H13.1235ZM16.5679 13.3218L22.545 20.5937L16.5004 29.4783L10.4862 20.6377L16.5696 13.3218H16.5679Z" fill="#6C7784"/>
</svg>
