<svg width="25" height="25" viewBox="0 0 25 25" fill="none" xmlns="http://www.w3.org/2000/svg">
<path id="Vector" d="M23 13V23C23 23.5304 22.7893 24.0391 22.4142 24.4142C22.0391 24.7893 21.5304 25 21 25H2C1.46957 25 0.960859 24.7893 0.585786 24.4142C0.210714 24.0391 0 23.5304 0 23V4C0 3.46957 0.210714 2.96086 0.585786 2.58579C0.960859 2.21071 1.46957 2 2 2H12C12.2652 2 12.5196 2.10536 12.7071 2.29289C12.8946 2.48043 13 2.73478 13 3C13 3.26522 12.8946 3.51957 12.7071 3.70711C12.5196 3.89464 12.2652 4 12 4H2V23H21V13C21 12.7348 21.1054 12.4804 21.2929 12.2929C21.4804 12.1054 21.7348 12 22 12C22.2652 12 22.5196 12.1054 22.7071 12.2929C22.8946 12.4804 23 12.7348 23 13ZM25 4.5C25 5.39002 24.7361 6.26004 24.2416 7.00007C23.7471 7.74009 23.0443 8.31686 22.2221 8.65746C21.3998 8.99805 20.495 9.08717 19.6221 8.91353C18.7492 8.7399 17.9474 8.31132 17.318 7.68198C16.6887 7.05264 16.2601 6.25082 16.0865 5.37791C15.9128 4.50499 16.0019 3.60019 16.3425 2.77792C16.6831 1.95566 17.2599 1.25285 17.9999 0.758387C18.74 0.26392 19.61 0 20.5 0C21.6935 0 22.8381 0.474106 23.682 1.31802C24.5259 2.16193 25 3.30653 25 4.5ZM23 4.5C23 4.00555 22.8534 3.5222 22.5787 3.11107C22.304 2.69995 21.9135 2.37952 21.4567 2.1903C20.9999 2.00108 20.4972 1.95157 20.0123 2.04804C19.5273 2.1445 19.0819 2.3826 18.7322 2.73223C18.3826 3.08186 18.1445 3.52732 18.048 4.01227C17.9516 4.49723 18.0011 4.99989 18.1903 5.45671C18.3795 5.91352 18.7 6.30397 19.1111 6.57867C19.5222 6.85338 20.0055 7 20.5 7C21.163 7 21.7989 6.73661 22.2678 6.26777C22.7366 5.79893 23 5.16304 23 4.5Z" fill="#ECF0F4"/>
</svg>
