<svg width="23" height="23" viewBox="0 0 23 23" fill="none" xmlns="http://www.w3.org/2000/svg">
<path id="Vector" fill-rule="evenodd" clip-rule="evenodd" d="M8.72069 23C7.44387 23 6.40594 23 5.57277 22.8997C4.70195 22.7959 3.95586 22.5742 3.30274 22.0623C2.6508 21.5528 2.25539 20.8805 1.94237 20.0595C1.64346 19.2728 1.3928 18.2644 1.08331 17.0224L1.05153 16.8985C0.561989 14.9347 0.170117 13.3659 0.0441998 12.1216C-0.0852475 10.8359 0.0441996 9.7178 0.774988 8.77774C1.10802 8.35077 1.50695 8.03467 1.96355 7.80113L2.70258 5.08477C2.98148 4.05744 3.18506 3.30964 3.61577 2.72697C4.0438 2.14947 4.62533 1.70436 5.29387 1.44251C5.85403 1.22313 6.48008 1.18656 7.28501 1.18067C7.45193 0.827377 7.71552 0.528859 8.04509 0.319844C8.37467 0.11083 8.75668 -8.64384e-05 9.14669 5.05423e-08H13.8539C14.6753 5.05423e-08 15.3849 0.48359 15.7156 1.17949C16.5193 1.18656 17.1465 1.22313 17.7067 1.44251C18.3754 1.70468 18.9569 2.15022 19.3848 2.72815C19.8167 3.30964 20.0191 4.05744 20.298 5.08477L21.037 7.80113C21.4924 8.03585 21.8925 8.35077 22.2256 8.77774C22.9564 9.7178 23.0858 10.8371 22.9552 12.1204C22.8293 13.3659 22.4374 14.9347 21.949 16.8973L21.9173 17.0224C21.6078 18.2644 21.3559 19.2728 21.0582 20.0595C20.7452 20.8805 20.3498 21.5528 19.6966 22.0635C19.0447 22.5742 18.2974 22.7948 17.4278 22.9009C16.5934 23 15.5567 23 14.2799 23H8.72069ZM5.9364 3.09026C6.1953 2.98882 6.50832 2.95933 7.28618 2.95108C7.61804 3.64697 8.32647 4.12821 9.14552 4.12821H13.8527C14.6741 4.12821 15.3825 3.64697 15.7144 2.95108C16.4922 2.95933 16.8053 2.98882 17.0642 3.09026C17.4243 3.23179 17.7373 3.47123 17.9679 3.78262C18.1751 4.06215 18.2963 4.45256 18.6387 5.71108L19.0553 7.24087C17.8338 7.07692 16.2569 7.07692 14.2975 7.07692H8.70187C6.74368 7.07692 5.16678 7.07692 3.94527 7.24087L4.36185 5.71108C4.70312 4.45256 4.82551 4.06215 5.03263 3.78262C5.26306 3.47136 5.57626 3.23142 5.9364 3.09026ZM9.61741 8.84615H8.77718C6.66719 8.84615 5.18208 8.84851 4.08766 9.00656C3.95723 9.0254 3.82734 9.04781 3.69814 9.0738L6.27532 12.8647L9.61741 8.84615ZM2.13301 9.91359C1.82939 10.3311 1.69642 10.9008 1.80115 11.9423C1.91295 13.0451 2.27187 14.49 2.7826 16.5399L2.8838 16.9445L5.10088 14.2777L2.13301 9.91359ZM3.45102 19.0251C3.49809 19.169 3.54516 19.3035 3.59341 19.4297C3.84171 20.0843 4.08531 20.4299 4.39127 20.6682C4.69606 20.9076 5.08911 21.0597 5.78342 21.1435C6.50126 21.2296 7.43093 21.2308 8.77718 21.2308H9.83159L6.1341 15.7969L3.45102 19.0251ZM13.1713 21.2308L16.8818 15.7756L19.5507 19.0239C19.5037 19.1678 19.4566 19.3035 19.4095 19.4297C19.16 20.0843 18.9164 20.4299 18.6116 20.6682C18.3069 20.9076 17.9126 21.0597 17.2195 21.1435C16.5017 21.2296 15.572 21.2308 14.2257 21.2308H13.1713ZM20.1215 16.9351L20.2191 16.5399C20.731 14.4888 21.09 13.0451 21.2006 11.9411C21.3065 10.9008 21.1735 10.3311 20.8699 9.91359L17.9185 14.2541L20.1215 16.9351ZM19.3048 9.0738C19.1756 9.04781 19.0457 9.02539 18.9153 9.00656C17.8208 8.84851 16.3357 8.84615 14.2257 8.84615H13.4749L16.7488 12.8305L19.3048 9.0738ZM9.14669 1.76923C9.06867 1.76923 8.99384 1.8003 8.93866 1.8556C8.88349 1.9109 8.8525 1.9859 8.8525 2.0641C8.8525 2.14231 8.88349 2.21731 8.93866 2.27261C8.99384 2.32791 9.06867 2.35897 9.14669 2.35897H13.8539C13.9319 2.35897 14.0067 2.32791 14.0619 2.27261C14.1171 2.21731 14.1481 2.14231 14.1481 2.0641C14.1481 1.9859 14.1171 1.9109 14.0619 1.8556C14.0067 1.8003 13.9319 1.76923 13.8539 1.76923H9.14669ZM11.5474 9.28492L15.7132 14.3532L11.5003 20.5455L7.30854 14.3838L11.5485 9.28492H11.5474Z" fill="#ECF0F5"/>
</svg>
