<svg
    xmlns="http://www.w3.org/2000/svg"
    width="220"
    height="120"
    viewBox="0 0 220 269"
    fill="none"
>
    <path
        d="M302.662 36.7491C297.678 33.596 292.328 31.1672 286.274 29.7841C285.65 29.6214 285.068 29.4269 284.444 29.2643C283.276 28.9424 282.159 28.4545 281.014 28.3695C280.898 28.3306 280.777 28.3588 280.661 28.3199C278.139 28.0719 275.853 27.2623 273.479 26.5833C271.729 26.0669 270.012 25.6531 268.129 25.9389C267.808 25.9918 267.426 25.7726 267.072 25.7231C266.161 25.7158 265.341 25.5107 264.527 25.2384C264.41 25.1995 264.331 25.1959 264.257 25.1252C263.023 24.5985 261.85 24.3438 260.376 24.4459C259.022 24.5198 257.39 24.6148 256.091 23.883C254.704 23.8545 253.364 23.7269 252.051 23.1966C251.432 22.9668 250.679 22.9666 249.967 22.9346C249.73 22.924 249.53 22.9486 249.334 22.9062C247.832 22.8387 246.362 22.8737 244.906 22.7073C241.872 22.4027 238.839 22.0981 235.772 21.691C235.181 21.6308 234.613 21.2349 234.036 20.9733C232.406 22.2132 230.483 21.3187 228.729 21.442C228.659 21.3042 228.631 21.1345 228.519 21.0285C228.254 20.8482 227.984 20.7351 227.714 20.6219L227.546 20.7491C227.77 20.9612 228.036 21.1415 228.222 21.3182C225.603 21.3352 223.022 21.3876 220.403 21.4047C220.124 21.4258 219.845 21.4469 219.566 21.4681C217.519 21.2414 215.509 21.0502 213.487 21.6327C209.965 21.5082 206.506 22.2282 202.943 22.1355C202.031 22.1283 201.119 22.121 200.255 22.5872C199.762 22.8344 198.967 22.866 198.381 22.7387C197.403 22.5264 196.599 22.6923 195.707 22.9889C195.056 23.2291 194.252 23.395 193.54 23.363C191.921 23.2566 190.424 23.6944 188.964 24.1676C188.355 24.3759 187.714 24.4818 187.072 24.5876C185.872 24.7357 184.673 24.8839 183.435 24.9966C183.319 24.9578 183.124 24.9153 182.974 24.7739C180.644 22.8511 181.345 21.8725 182.839 20.2898C183.693 19.3854 184.854 18.6295 185.974 17.9054C187.59 16.8669 189.351 16.037 191.01 14.9667C191.548 14.6205 192.497 14.6632 193.074 14.3523C194.226 13.7307 195.691 13.7629 196.815 12.9716C197.772 12.3075 199.209 12.17 200.422 11.8205C201.106 11.6829 201.789 11.5452 202.435 11.3722C202.579 11.0083 202.676 10.7433 202.861 10.3476C203.443 10.5421 203.978 10.8355 204.574 10.8286C205.286 10.8605 206.015 10.6239 206.736 10.5216C207.378 10.4158 207.982 10.2746 208.587 10.1334C209.642 9.77676 210.421 8.80169 211.756 8.99634C211.836 8.99989 212.086 8.80914 212.133 8.7102C212.299 8.01059 212.94 7.90476 213.652 7.93672C215.276 7.97598 216.916 7.17424 218.546 8.29124C218.512 7.61631 218.53 7.34778 218.478 6.9414C220.53 7.1009 222.548 6.58547 224.402 7.91453C224.777 7.05597 225.008 6.56131 225.202 6.03133C226.356 5.98214 227.356 5.8587 228.519 6.24767C230.037 6.68619 231.662 7.29786 233.344 6.46433C233.59 6.34073 234.223 6.36914 234.409 6.54586C235.271 7.29164 236.401 7.0057 237.462 7.15435C238.718 7.34546 240.024 6.79807 241.17 7.45557C241.323 7.52982 241.728 7.41331 241.937 7.25435C242.438 6.87285 243.029 6.93307 243.486 7.22292C244.175 7.59058 244.752 7.8522 245.537 7.38241C245.742 7.2906 246.161 7.5451 246.515 7.59465C247.022 7.71846 247.637 8.0154 248.078 7.93424C249.724 7.6378 251.195 8.17526 252.731 8.34523C253.005 8.39123 253.275 8.50437 253.554 8.48323C257.573 8.29337 261.515 9.24483 265.496 9.01963C265.933 9.00558 266.408 9.0269 266.878 9.11535C269.116 9.45156 271.391 9.82312 273.63 10.1593C276.417 10.5876 279.241 11.0511 281.982 11.5783C284.802 12.109 287.525 12.9047 290.248 13.7003C294.06 14.8143 297.839 15.8258 301.425 17.3673C303.082 18.0814 304.698 18.8274 305.919 20.128C306.549 20.796 307.299 21.4358 308.587 21.1569C308.693 20.7576 308.799 20.3584 308.863 19.9909C309.167 18.4221 309.233 16.8426 309.3 15.2631C309.331 14.7932 309.284 14.3197 309.115 13.8744C308.881 13.2242 308.405 12.6304 307.604 12.1567C307.413 12.0471 307.185 11.9022 306.952 11.8244C302.832 9.98953 298.744 8.25714 294.346 7.01582C293.489 6.77534 292.67 6.5702 291.851 6.36507C289.431 5.78499 287.052 5.17313 284.591 4.62485C283.185 4.29236 281.682 4.22487 280.24 3.85704C278.834 3.52455 277.345 3.25564 275.889 3.08922C275.298 3.02901 274.749 2.93702 274.195 2.91215C271.994 2.61128 269.798 2.24329 267.597 1.94242C264.452 1.53178 261.344 1.15649 258.189 0.880125C254.56 0.582456 250.927 0.351907 247.327 0.223847C245.191 0.127947 243.042 0.233435 240.898 0.2718C239.033 0.289028 237.13 0.270928 235.298 0.390641C232.791 0.51372 230.238 0.735717 227.764 0.961282C227.126 1.00001 226.513 1.27549 225.904 1.48383C224.803 1.93939 223.64 2.12284 222.417 2.03422C220.133 2.36936 217.846 2.77167 215.563 3.10681C215.242 3.15975 214.772 3.07129 214.506 2.89102C213.22 1.95786 212.073 2.51234 210.925 3.06685C210.637 3.22225 210.307 3.40945 210.014 3.63199C209.183 4.2007 208.244 4.59624 207.155 4.27796C206.611 4.11883 206.313 4.4085 205.867 4.5568C205.621 4.68043 205.105 4.69091 204.835 4.57778C204.332 4.38685 203.847 3.92736 203.308 4.27352C202.895 4.5243 202.742 5.02252 202.436 5.44647C201.053 4.7783 199.649 5.01825 198.716 5.91908C197.955 6.6256 197.155 6.72436 196.248 6.64994C194.987 6.52598 193.838 6.50804 192.975 7.5467C192.497 8.16497 191.636 7.99159 190.92 8.02677C189.687 8.07241 188.492 8.15342 187.746 9.23097C187.528 9.52421 187.002 9.66897 186.593 9.8526C184.995 10.6226 183.168 11.2475 181.793 12.2295C179.049 14.1264 176.374 16.1611 175.916 19.4401C175.815 20.3447 175.519 21.2068 175.81 22.1963C176.424 24.2777 175.218 25.705 172.782 26.5383C171.155 27.1386 169.599 27.8768 167.869 28.2368C167.627 28.2933 167.288 28.6147 167.321 28.7172C167.686 29.7774 166.346 29.6498 165.994 30.1727C165.549 30.8935 164.763 30.7908 164.079 30.9284C163.354 31.0979 162.629 31.2673 161.903 31.4368C161.541 31.5215 161.141 31.5709 160.853 31.7263C159.408 32.5704 157.996 33.5171 156.588 34.3966C156.217 34.6156 155.869 35.0714 155.511 35.089C154.395 35.1735 153.991 35.8624 153.509 36.5478C153.069 37.2014 152.488 37.5794 151.488 37.7028C150.326 37.8863 149.56 38.66 149.143 39.5503C148.583 40.8046 147.716 41.9104 146.96 43.1222C146.079 44.4294 145.38 45.9805 145.588 47.606C145.826 49.9735 146.064 52.341 146.343 54.6768C145.815 55.4611 144.96 55.7931 144.105 56.125C137.389 58.6852 131.26 61.9453 125.342 65.6188C122.197 67.565 120.036 70.2288 117.832 72.9244C116.055 75.1678 115.93 77.62 115.764 80.1041C115.676 80.2348 115.634 80.2666 115.588 80.3655C114.177 81.8846 112.29 82.8099 110.362 83.7671C107.904 84.9361 105.558 86.2112 103.431 87.7654C102.929 88.1469 102.357 88.3906 101.781 88.7014C100.834 89.2312 99.5501 89.443 99.3855 90.715C99.3302 90.9482 98.954 91.2343 98.6287 91.3544C97.4109 91.7711 96.9196 92.5907 96.8938 93.566C96.8397 94.3716 96.4083 94.8909 95.7396 95.3996C93.3482 97.3461 92.5071 99.8335 92.5269 102.494C92.5068 103.975 91.6439 105.013 90.7392 106.084C88.9871 106.78 87.3841 107.617 85.5754 107.973C83.0415 108.499 81.1234 109.894 78.8833 110.77C76.6386 111.713 74.5669 113.034 72.5415 114.256C70.4743 115.51 68.5234 116.803 66.5308 118.128C66.0338 118.442 65.6441 118.93 65.2216 119.315C64.4976 120.056 63.8527 120.802 63.1659 121.579C62.9525 121.805 62.6181 122.06 62.5583 122.36C62.0457 124.088 60.8259 125.716 60.858 127.603C60.8502 128.31 60.5261 129.002 60.3602 129.702C59.0588 130.182 58.9269 131.557 57.5374 132.168C54.7211 133.354 51.8959 134.675 49.3644 136.346C48.5748 136.883 47.7479 137.385 46.9538 137.989C45.491 139.101 44.0282 140.214 42.6027 141.362C42.1847 141.68 41.8413 142.069 41.5771 142.461C38.679 146.64 37.1536 151.05 38.1781 155.877C38.4507 157.135 38.6023 158.421 37.6378 159.792C36.4245 160.141 34.9277 160.579 33.4308 161.017C32.9846 161.165 32.3056 161.236 32.2085 161.501C31.7275 162.759 30.7084 162.578 29.5549 162.627C27.9224 162.723 26.2153 162.747 25.0554 164.075C24.8001 164.333 24.2748 164.478 23.8703 164.594C21.3692 165.223 19.0081 166.127 16.8528 167.511C15.2364 168.55 13.3216 169.306 11.7379 170.447C8.52868 172.76 5.58502 175.254 4.00633 178.685C3.77483 179.18 3.34787 179.632 3.03729 180.123C0.265816 184.779 -0.14213 189.677 1.10619 194.716C1.23283 195.193 1.44305 195.607 1.4906 196.08C2.09723 201.225 5.79342 204.657 10.2702 207.686C10.9922 208.156 11.7786 208.259 12.6009 207.825C13.5114 207.26 14.3801 206.726 15.3324 206.129C15.1955 205.214 14.8959 204.359 14.95 203.553C14.9667 202.712 16.0817 202.055 15.6374 200.991C12.8445 200.058 10.4129 198.467 8.11117 196.714C5.6603 194.82 4.89725 192.597 5.63554 189.869C6.16161 187.94 6.80405 186.05 7.99107 184.318C9.1363 182.619 10.5426 181.167 12.2143 179.895C14.3504 178.207 16.6311 176.727 18.9253 175.045C18.8597 174.84 18.8031 174.501 18.7138 174.059C25.19 170.344 32.4698 168.247 39.9418 166.831C40.431 167.224 40.7711 167.475 41.144 167.828C41.4649 167.775 41.8648 167.726 42.1857 167.673C43.1109 167.479 43.8554 167.613 44.4058 168.278C44.8115 168.734 45.2679 169.023 45.9289 169.221C47.0181 169.54 48.1072 169.858 49.0903 170.576C49.8824 171.183 51.3342 171.417 52.4831 171.435C53.953 171.4 55.2421 171.694 56.4714 172.287C57.2024 172.623 57.9425 172.825 58.8632 172.698C59.6631 172.599 60.5658 172.741 61.3476 172.911C62.1294 173.08 62.7576 173.176 63.389 172.632C63.598 172.473 64.077 172.427 64.4352 172.41C68.1521 172.576 71.8724 172.104 75.5463 171.73C76.0253 171.684 76.4625 171.67 76.937 171.692C79.4915 172.042 81.9238 171.848 84.2193 170.739C84.9163 170.4 85.2937 170.687 85.4171 171.803C86.3899 172.083 87.3524 171.924 88.2957 171.461C88.83 171.182 89.4061 170.871 89.9777 170.628C89.7913 170.451 89.6421 170.309 89.4139 170.165C89.6646 169.974 89.8781 169.748 90.1617 169.659C90.4825 169.606 90.8361 169.656 91.1943 169.638C92.2416 169.989 92.9894 169.483 93.6999 168.943C94.3687 168.434 94.251 167.823 94.1752 167.18C94.0711 166.367 93.9625 165.621 93.8584 164.809C93.5563 162.809 92.6035 161.049 91.121 159.501C90.678 159.009 89.9842 158.709 89.3278 158.444C86.7766 157.454 84.0356 156.927 81.2349 156.7C78.8296 156.491 76.4153 156.416 74.0009 156.341C73.2892 156.309 72.5639 156.479 71.8476 156.514C71.2895 156.556 70.7269 156.665 70.1778 156.573C68.8797 156.414 67.6098 156.424 66.3265 156.636C65.8848 156.717 65.364 156.795 64.9357 156.675C63.2274 156.127 61.8052 156.635 60.6021 157.423C57.503 156.913 54.5499 157.185 51.6951 157.763C50.2072 158.067 48.7374 158.102 47.3094 158.105C45.8814 158.108 44.8373 157.119 43.9886 156.172C43.401 155.472 43.5759 154.638 43.9045 153.878C44.7006 152.062 45.6877 150.356 47.2849 149.013C48.7104 147.865 50.2105 146.788 51.7569 145.612C51.5094 145.163 51.3365 144.785 51.089 144.336C51.5024 144.085 52.0921 143.573 52.3621 143.686C53.9823 144.365 54.896 143.16 56.1466 142.846C56.3093 142.786 56.5318 142.425 56.5035 142.256C56.4515 141.849 56.283 141.404 56.7711 141.224C57.18 141.04 57.6545 141.062 58.0962 140.981C58.9006 140.815 59.7004 140.716 60.5466 140.518C61.6763 140.232 62.7044 140.279 63.6411 141.095C63.6264 140.724 63.6026 140.487 63.6014 139.915C64.5844 140.632 65.4228 141.141 66.0149 141.774C66.3087 142.124 66.0682 142.753 66.0605 143.46C67.3509 144.326 68.883 145.135 70.5778 145.885C72.0399 146.556 73.4556 147.327 74.8714 148.098C76.5527 149.049 78.4011 149.872 80.5364 149.968C81.6436 150.018 82.6955 150.301 83.7891 150.552C86.2883 151.136 88.6949 151.917 91.342 152.07C92.2119 152.109 93.0921 152.586 93.8694 152.823C94.6738 152.657 95.4871 152.357 96.278 152.392C98.8923 152.442 101.498 152.627 104.107 152.744C105.885 152.858 107.666 152.904 109.199 151.929C109.45 151.738 109.887 151.724 110.287 151.675C112.124 151.488 113.956 151.368 115.831 151.217C116.668 151.153 117.148 151.68 117.758 152.044C118.256 152.302 118.852 152.295 119.13 151.702C119.218 151.571 119.231 151.37 119.319 151.239C119.407 151.108 119.654 150.984 119.77 151.023C121.213 151.391 121.912 149.84 123.368 150.007C125.415 150.233 127.139 149.368 128.803 148.803C129.299 147.916 128.053 148.163 128.191 147.294C128.919 146.485 129.526 145.132 131.604 144.888C131.732 145.938 130.361 146.28 130.186 147.114C130.638 147.471 131.056 147.153 131.386 146.966C131.878 146.719 132.296 146.401 132.598 146.044C134.425 143.635 135.233 141.045 134.632 138.189C134.486 137.409 134.377 136.663 134.39 135.889C134.363 134.507 133.862 133.105 133.678 131.716C133.446 129.854 132.378 128.627 130.186 128.192C129.991 128.15 129.879 128.044 129.73 127.902C129.655 127.831 129.66 127.764 129.585 127.694C129.742 127.128 130.282 127.355 130.678 127.372C131.864 127.426 133.083 127.581 134.311 127.603C134.748 127.589 135.194 127.441 135.636 127.359C135.556 126.783 135.807 126.593 136.472 126.724C137.364 126.427 138.234 126.466 139.091 126.706C138.227 127.173 137.324 127.031 136.468 126.791C136.175 127.013 135.924 127.204 135.632 127.427C136.084 127.784 136.456 128.137 137.219 128.003C138.261 127.848 139.298 127.76 140.339 127.604C140.041 127.322 139.743 127.039 139.444 126.756C140.035 126.816 140.584 126.908 141.175 126.968C140.925 127.159 140.669 127.417 140.418 127.608C140.912 127.933 141.433 127.855 141.921 127.675C141.697 127.463 141.436 127.216 141.254 126.972C141.683 127.092 141.99 127.241 141.963 127.644C142.457 127.969 143.01 127.994 143.545 127.715C145.601 127.807 147.498 127.32 149.441 126.734C150.129 126.529 150.858 126.292 151.57 126.324C154.026 126.367 156.375 126.237 158.652 125.397C160.196 124.86 161.912 124.701 163.525 124.302C164.613 124.048 165.626 123.723 166.131 122.702C166.404 122.176 167.009 122.035 167.767 121.968C171.282 121.587 172.917 120.28 173.585 117.414C174.078 115.383 174.097 113.33 173.958 111.27C173.943 110.899 173.691 110.517 173.597 110.142C173.471 109.665 173.148 109.146 173.292 108.782C173.727 107.623 173.12 106.619 172.955 105.534C172.719 104.312 171.857 103.566 170.707 102.976C169.557 102.385 168.239 101.922 167.005 101.395C168.581 100.961 168.581 100.961 169.875 101.187C171.248 101.417 172.579 101.679 173.951 101.909C174.696 102.044 175.366 102.107 175.965 101.461C176.22 101.203 176.978 101.136 177.494 101.126C178.406 101.133 179.35 101.243 180.299 101.285C182.435 101.381 184.574 101.41 186.699 101.068C187.462 100.934 188.36 101.142 189.151 101.178C190.1 101.22 191.064 101.634 192.021 100.97C192.313 100.747 192.904 100.808 193.379 100.829C196.193 100.854 198.983 100.643 201.713 100.16C203.959 99.7891 206.115 98.9769 208.53 99.0516C209.32 99.0872 210.138 98.7199 210.914 98.3844C211.937 97.9252 212.875 97.5297 214.066 97.5158C214.345 97.4947 214.703 97.4771 214.871 97.35C216.259 96.1665 218.245 96.1211 219.913 95.489C221.866 94.7686 223.753 94.4157 225.871 94.7801C226.732 94.9535 227.69 94.8618 228.531 94.7313C228.889 94.7137 229.274 94.2933 229.455 93.9647C229.77 93.4065 230.282 93.4631 230.807 93.3184C231.212 93.2019 231.63 92.884 231.769 92.5872C232 92.0925 232.078 91.5237 232.193 90.9901C232.551 88.6157 232.788 86.2694 232.55 83.9019C232.535 83.5309 232.562 83.1281 232.598 82.591C233.952 82.5171 235.128 82.1322 236.126 81.4363C236.832 80.963 237.632 80.8642 238.506 80.8362C240.172 80.8437 241.804 80.7486 243.455 80.3851C244.543 80.1309 245.832 80.4245 246.902 80.4389C248.361 79.9657 249.704 79.4537 250.759 79.097C251.704 79.2068 250.938 79.9805 251.775 79.9171C252.375 79.843 253.054 79.7725 253.09 79.2354C253.102 78.4615 253.148 77.7902 253.928 77.3875C255.197 76.8048 256.512 76.1231 258.08 76.3956C258.275 76.438 258.438 76.378 258.754 76.3922C259.835 75.0603 260.646 73.6153 260.8 71.9051C261.087 68.8204 261.331 65.7674 261.18 62.6968C261.136 61.5837 259.818 58.7636 258.881 57.9471C257.982 57.166 257.003 56.3813 256.02 55.6638C255.755 55.4835 255.406 55.3668 255.015 55.2819C254.508 55.1581 253.833 55.1615 253.414 54.907C252.501 54.3273 251.634 53.6486 250.805 53.0053C251.157 52.4824 251.632 52.5038 252.055 52.6911C253.908 53.4477 256.113 53.109 257.961 53.9328C258.306 54.1166 258.943 54.0779 259.347 53.9614C260.277 53.7001 261.09 53.4 261.873 54.1422C262.023 54.2836 262.622 54.2095 262.943 54.1566C263.427 54.0436 263.966 53.6975 264.44 53.7188C265.31 53.7579 266.138 53.8287 267.008 53.8678C267.757 53.9351 268.427 53.9989 269.134 54.098C269.567 54.1511 269.898 54.5363 270.355 54.8262C271.107 54.2539 271.962 53.922 273.098 54.1413C274 54.2829 274.958 54.1912 275.87 54.1985C276.345 54.2198 276.833 54.0397 277.261 54.16C279.569 54.634 281.899 54.1999 284.164 54.1333C285.555 54.0948 286.921 53.8195 288.279 53.6784C288.758 53.6326 289.246 53.4525 289.637 53.5374C290.889 53.7957 292.061 53.4779 293.19 53.192C296.412 52.4613 299.676 51.6988 302.375 49.9009C303.494 49.1768 304.223 48.3678 304.341 47.1946C304.477 45.753 304.735 44.2831 304.829 42.8732C304.87 42.269 304.873 41.6294 304.835 41.0217C304.811 40.7849 304.787 40.5482 304.721 40.3432C304.895 38.9369 304.111 37.6222 302.662 36.7491ZM208.185 9.61033C208.223 9.64567 208.339 9.68458 208.376 9.71993C208.446 9.85774 208.479 9.96025 208.508 10.1299C208.354 10.0556 208.237 10.0167 208.126 9.91068C208.088 9.87533 208.176 9.7446 208.185 9.61033ZM200.212 11.407C200.249 11.4424 200.37 11.4141 200.366 11.4813C200.398 11.5838 200.394 11.6509 200.385 11.7852C200.357 11.6156 200.282 11.5449 200.212 11.407ZM16.2402 176.642C15.9058 176.896 15.5296 177.182 15.1117 177.5C15.0133 177.193 14.906 177.02 14.9523 176.921C15.1375 176.525 15.4718 176.271 15.9418 176.359C16.0582 176.398 16.2402 176.642 16.2402 176.642ZM30.6656 168.536C30.4283 168.525 30.1538 168.479 29.921 168.401C29.8838 168.366 29.9346 168.2 29.9481 167.999C30.2226 168.045 30.4599 168.055 30.6926 168.133C30.7672 168.204 30.6746 168.402 30.6656 168.536ZM76.7266 164.78C76.1132 165.055 75.5641 164.963 74.9867 164.702C76.0418 164.345 76.0791 164.38 76.7266 164.78ZM69.7671 164.467C69.7298 164.432 69.8179 164.301 69.8597 164.269C70.1851 164.149 70.594 163.966 70.8686 164.012C72.1249 164.203 73.3767 164.461 74.6704 164.688C73.2751 164.793 71.9217 164.867 70.4892 164.937C70.331 164.93 70.0937 164.92 69.9401 164.845C69.8655 164.775 69.7999 164.57 69.7671 164.467ZM67.9244 164.149C67.9244 164.149 68.1199 164.191 67.9945 164.287L67.9244 164.149ZM71.018 170.651C71.1761 170.658 71.3343 170.666 71.488 170.74C71.488 170.74 71.4789 170.874 71.4744 170.941C71.3163 170.934 71.1581 170.927 71.0044 170.853C70.9671 170.817 71.0134 170.718 71.018 170.651ZM122.431 138.551C121.651 138.953 120.866 139.423 120.052 139.723C117.687 140.694 115.293 141.496 112.552 140.969C112.119 140.916 111.603 140.926 111.199 141.043C110.181 141.435 109.232 141.392 108.171 141.243C107.622 141.151 107.064 141.194 106.468 141.2C101.696 141.39 96.9275 140.94 92.2557 140.225C88.724 139.663 85.0115 139.429 81.8353 137.704C81.4161 137.449 80.7417 137.452 80.2344 137.329C78.6051 136.784 76.8833 136.437 74.9365 135.306C78.1301 134.406 80.8223 133.887 83.58 133.573C85.2588 133.379 86.9331 133.252 88.6028 133.193C90.589 133.147 92.5378 133.067 94.4686 133.254C96.4785 133.446 98.4839 133.704 100.539 133.224C101.343 133.058 102.349 133.44 103.247 133.649C103.675 133.769 104.057 133.988 104.56 134.179C105.587 133.653 106.591 133.462 107.768 133.65C111.291 134.347 114.874 134.743 118.383 135.641C119.281 135.85 120.184 135.992 121.078 136.268C122.237 136.724 122.866 137.392 122.431 138.551ZM76.6463 132.285C76.6926 132.186 76.7807 132.056 76.827 131.957C76.9434 131.996 77.1388 132.038 77.2552 132.077C77.1298 132.172 77.0417 132.303 76.8791 132.363C76.8418 132.328 76.7254 132.289 76.6463 132.285ZM89.7783 130.451C89.8992 130.423 90.0619 130.363 90.1828 130.335L90.3319 130.476C90.2111 130.504 90.0484 130.564 89.9275 130.592C89.9275 130.592 89.8529 130.522 89.7783 130.451ZM108.306 124.448C106.326 124.999 104.669 124.285 102.882 124.306C102.524 124.323 102.092 124.27 101.766 124.39C100.618 124.945 99.3203 124.785 98.2176 124.669C96.9568 124.545 95.7332 124.456 94.6363 124.844C92.6469 125.529 90.6415 125.271 88.6554 125.317C87.2647 125.355 85.8784 125.326 84.4787 125.499C82.3582 125.774 80.2705 126.152 78.1827 126.53C77.8619 126.583 77.6812 126.911 77.4677 127.137C77.3423 127.233 77.2079 127.462 77.1288 127.459C75.8352 127.232 74.8231 128.13 73.6414 128.009C72.1806 127.91 70.8882 128.256 69.5212 128.531C69.2004 128.584 68.8422 128.602 68.3677 128.58C68.4816 127.474 69.313 126.906 70.0653 126.333C73.2372 123.984 76.5583 121.777 80.3506 120.23C83.3668 119.018 86.4203 117.843 89.3664 116.493C90.8395 115.819 92.2528 115.445 93.9463 115.622C95.0503 116.311 96.396 116.944 96.9848 118.216C97.0922 118.389 97.3159 118.601 97.5487 118.679C100.58 120.196 103.918 121.288 107.26 122.314C107.688 122.434 108.167 122.388 108.604 122.374C110.786 122.371 111.368 122.566 113.837 124.192C111.93 124.241 109.966 123.951 108.306 124.448ZM221.155 22.6168C221.508 22.6664 221.862 22.716 222.215 22.7655C222.127 22.8963 222.151 23.133 222.072 23.1294C221.751 23.1824 221.397 23.1328 221.039 23.1504C221.057 22.8818 221.117 22.5815 221.155 22.6168ZM224.793 25.1371C224.83 25.1725 224.784 25.2714 224.779 25.3385C224.659 25.3668 224.454 25.4586 224.338 25.4197C224.105 25.3419 223.918 25.1652 223.728 25.0556C223.816 24.9249 223.987 24.7306 223.987 24.7306C224.257 24.8437 224.486 24.9886 224.793 25.1371ZM209.462 23.1017L209.369 23.2996L209.22 23.1582L209.462 23.1017ZM151.528 47.1657C152.719 45.3674 154.064 43.6433 155.866 42.2091C157.333 41.0293 158.95 39.9908 160.571 38.8852C160.78 38.7262 161.059 38.7051 161.305 38.5815C164.079 37.4266 166.775 36.2683 169.47 35.1099C169.506 34.5728 169.571 34.2053 169.644 33.7036C170.984 33.8311 172.394 34.0965 173.191 32.8529C173.279 32.7221 173.679 32.6727 173.958 32.6516C175 32.4964 176.009 32.2387 177 32.2495C178.865 32.2323 180.642 32.3458 182.184 33.5935C183.237 34.4489 184.709 34.9863 185.72 35.8735C186.918 36.9373 188.365 37.238 189.841 37.7083C190.539 37.9417 191.288 38.009 191.982 38.3095C193.639 39.0237 195.25 39.8368 196.912 40.4838C200.544 41.9264 204.045 43.5314 207.904 44.5465C209.384 44.9497 210.906 45.321 212.424 46.332C211.662 46.4661 210.954 46.367 210.699 46.6249C209.381 47.9461 208.147 47.4193 206.894 46.5886C206.512 46.3695 206.051 46.1467 205.614 46.1608C205.177 46.1748 204.721 46.4574 204.15 46.7011C202.771 45.9658 201.181 46.029 199.469 46.1205C196.32 46.3494 193.157 46.2073 190.05 46.4045C188.776 46.4819 187.628 47.0364 186.297 46.7746C185.985 46.6932 185.535 46.9087 185.284 47.0994C184.415 47.6328 183.448 47.8587 182.359 47.5404C181.698 47.3424 181.094 47.4836 180.485 47.6919C179.997 47.872 179.434 47.9814 178.876 48.0237C177.076 48.2459 175.207 48.3303 173.398 48.6867C172.194 48.902 171.068 49.1208 169.836 49.1665C169.12 49.2016 168.203 49.2615 167.744 49.6112C166.824 50.3106 165.824 50.4341 164.704 50.5857C163.704 50.7092 162.77 51.0376 161.761 51.2953C160.589 51.613 159.488 52.0686 158.288 52.2167C157.088 52.3649 155.897 52.3787 154.894 53.1417C154.309 53.5868 153.439 53.5477 152.843 52.9822C151.193 51.5613 149.761 49.8472 151.528 47.1657ZM217.566 51.2766C217.607 51.2448 217.798 51.3544 217.915 51.3933C217.873 51.4251 217.789 51.4887 217.71 51.4852C217.589 51.5134 217.431 51.5063 217.273 51.4992C217.357 51.4356 217.482 51.3402 217.566 51.2766ZM199.563 50.6364C199.6 50.6717 199.674 50.7424 199.67 50.8095C199.67 50.8095 199.549 50.8378 199.507 50.8696C199.47 50.8342 199.437 50.7317 199.4 50.6964C199.4 50.6964 199.521 50.6681 199.563 50.6364ZM193.033 51.0164C193.098 51.2214 193.206 51.3946 193.192 51.596C193.183 51.7303 193.058 51.8256 192.97 51.9564C192.704 51.7761 192.434 51.6629 192.168 51.4827C192.215 51.3837 192.261 51.2848 192.303 51.253C192.586 51.1647 192.828 51.1083 193.033 51.0164ZM168.812 55.5513C168.153 55.9257 167.617 55.6323 167.044 55.3036C167.673 55.3991 168.222 55.4911 168.812 55.5513ZM157.612 53.4321L157.435 53.6935C157.398 53.6582 157.365 53.5557 157.328 53.5204C157.412 53.4568 157.532 53.4286 157.612 53.4321ZM169.943 74.76C171.501 74.5943 172.647 75.2518 173.788 75.9764C171.315 76.7744 170.342 76.4951 169.943 74.76ZM165.901 72.9287C164.893 73.1864 164.37 72.6915 163.807 72.2285C165.117 71.614 166.258 72.3386 167.431 72.5933C167.589 72.6004 167.687 72.9079 167.828 73.1835C167.041 73.0809 166.385 72.8157 165.901 72.9287ZM137.002 66.8159L136.839 66.8759C136.876 66.9112 136.885 66.777 137.002 66.8159ZM122.687 78.5969C123.91 76.3286 125.627 74.3856 128.135 73.0505C128.916 72.6479 129.552 72.0367 130.221 71.528C130.513 71.3055 130.727 71.0794 131.057 70.8922C133.849 69.4688 136.642 68.0455 139.471 66.6574C140.498 66.1312 141.6 65.6756 142.585 65.1812C143.38 62.7927 144.035 62.4854 146.474 63.3693C146.553 63.3729 146.628 63.4436 146.707 63.4471C147.293 63.5745 147.478 63.1788 147.659 62.8502C148.645 62.9282 149.65 62.7376 150.65 62.6142C151.329 62.5436 152.24 62.5509 152.771 62.9115C154.253 63.8871 156.231 64.5483 156.626 66.3505C158.607 66.3722 160.144 67.1146 161.722 67.8252C164.651 69.1015 165.107 69.3914 166.055 70.646C165.204 70.9108 164.353 71.1757 163.535 71.5429C163.085 71.7584 163.462 72.0447 163.644 72.2885C163.041 73.0022 162.269 73.2706 161.226 72.8533C160.956 72.7402 160.77 72.5635 160.495 72.5175C160.379 72.4786 160.212 72.6058 160.012 72.6304C159.78 73.1251 160.777 73.6412 159.787 74.2028C159.513 74.1568 159.155 74.1744 158.847 74.0259C156.873 73.2975 154.793 72.9684 152.7 72.8407C151.988 72.8088 151.314 72.8121 150.999 73.3704C150.466 74.2218 149.33 74.0025 148.666 74.444C147.551 75.101 146.754 74.5602 145.823 74.249C145.67 74.1748 145.428 74.2312 145.27 74.2241C144.94 74.4113 144.652 74.5667 144.322 74.7539C143.95 74.9729 143.579 75.1919 143.244 75.4463C142.241 76.2093 141.795 76.3576 140.566 75.7637C139.225 75.0637 138.146 75.1836 137.017 76.042C136.808 76.2009 136.599 76.3599 136.228 76.5789C133.603 76.0906 130.986 76.6801 128.396 77.4392C127.425 77.7323 126.49 78.0607 125.519 78.3537C124.547 78.6468 123.58 78.8727 122.609 79.1658C122.715 78.7665 122.682 78.664 122.687 78.5969ZM161.45 77.2067C161.049 76.6837 160.61 76.1253 159.985 75.3901C160.813 75.461 161.404 75.5212 161.916 75.5779C162.794 74.9102 163.653 74.5112 164.669 75.3312L162.621 76.889C162.509 76.783 162.36 76.6416 162.248 76.5355C161.998 76.7263 161.705 76.9488 161.45 77.2067ZM157.876 76.6759C157.653 76.4638 157.429 76.2517 157.205 76.0397C157.884 75.9691 157.921 76.0045 157.876 76.6759ZM152.738 77.5898C152.608 77.7523 151.901 77.6532 151.515 77.5012C150.854 77.3032 150.202 76.9709 149.392 76.6315C150.548 75.9427 151.354 76.3492 152.155 76.8229C152.421 77.0032 153.174 77.0034 152.738 77.5898ZM142.102 99.5695C142.794 99.2976 143.422 99.3932 144.182 99.8987C143.164 100.291 142.582 100.096 142.102 99.5695ZM100.064 101.284C101.814 99.4434 103.755 97.7125 105.695 95.9815C107.218 94.5684 108.885 93.3639 110.813 92.4067C111.469 92.0995 112.012 91.6862 112.593 91.3082C114.251 90.2379 116.087 89.4787 118.086 89.2318C119.168 90.2568 120.495 91.1581 121.214 92.2678C122.036 93.6178 123.729 93.7949 124.815 94.7528C124.927 94.8588 125.076 95.0002 125.23 95.0744C125.537 95.2229 125.919 95.4421 126.235 95.4563C127.747 95.3895 128.842 96.2131 130.168 96.542C130.871 96.7083 131.574 96.8745 132.318 97.0089C133.845 97.3132 135.547 97.356 136.856 97.9535C138.355 98.6605 140.201 98.3394 141.608 99.2443C141.761 99.3186 141.873 99.4246 141.985 99.5306C140.699 100.382 139.393 100.929 137.763 100.385C136.635 101.243 135.449 101.19 134.182 100.561C133.567 100.264 133.05 99.7017 132.204 99.8994C130.765 101.249 130.727 101.213 129.037 100.397C128.73 100.248 128.418 100.167 127.99 100.047C127.791 100.644 127.722 101.079 127.528 101.609C124.796 100.947 122.068 102.003 119.382 101.243C119.012 102.034 118.464 102.514 117.506 102.606C115.948 102.772 114.316 102.867 112.861 103.273C111.931 103.534 111.089 103.665 110.195 103.389C109.339 103.148 108.483 102.908 107.584 102.699C106.479 103.222 105.303 103.607 105.017 104.907C103.844 104.652 102.788 104.437 101.694 104.185C100.638 103.97 99.5318 104.492 98.4099 104.072C98.5656 102.934 99.3359 102.093 100.064 101.284ZM143.606 106.708C142.713 107.004 141.951 107.138 141.27 106.636C142 106.4 142.734 106.096 143.606 106.708ZM140.276 104.908C140.28 104.841 140.243 104.806 140.21 104.703C140.252 104.672 140.336 104.608 140.373 104.643C140.452 104.647 140.527 104.718 140.564 104.753L140.276 104.908ZM135.54 104.561C135.583 105.102 135.178 105.218 134.825 105.168C134.355 105.08 133.768 104.953 134.097 104.193C134.604 104.317 135.112 104.441 135.54 104.561ZM132.281 105.256C132.006 105.21 131.773 105.132 131.578 105.09C131.582 105.023 131.629 104.924 131.67 104.892C131.833 104.832 132.033 104.807 132.149 104.846C132.229 104.85 132.215 105.051 132.281 105.256ZM128.386 104.778C128.494 104.951 128.337 105.517 128.216 105.545C127.732 105.658 127.22 105.601 126.462 105.668C126.698 105.107 126.73 104.637 127.018 104.481C127.436 104.163 128.06 104.326 128.386 104.778ZM124.281 105.671C124.234 105.77 123.988 105.894 123.872 105.855C123.481 105.77 123.095 105.618 122.745 105.501C122.796 105.335 122.847 105.169 122.898 105.003C123.289 105.088 123.721 105.141 124.108 105.293C124.187 105.297 124.29 105.537 124.281 105.671ZM120.346 105.798C120.3 105.897 120.202 106.162 120.165 106.126C119.928 106.116 119.695 106.038 119.462 105.96C119.667 105.868 119.871 105.776 120.155 105.688C120.192 105.723 120.346 105.798 120.346 105.798ZM119.379 106.024C119.277 106.356 119.138 106.652 119.078 106.953C118.334 106.818 117.631 106.652 116.654 106.44C117.629 105.507 118.424 105.476 119.379 106.024ZM114.816 106.054C114.756 106.355 114.659 106.62 114.594 106.987C114.245 106.87 113.971 106.824 113.822 106.683C113.561 106.436 113.509 106.029 113.913 105.913C114.117 105.821 114.462 106.005 114.816 106.054ZM108.693 107.463C108.567 107.558 108.4 107.685 108.321 107.682C108.009 107.6 107.739 107.487 107.469 107.374C107.79 107.321 108.111 107.268 108.432 107.215C108.511 107.219 108.618 107.392 108.693 107.463ZM97.9256 105.969L97.6929 105.891L97.8183 105.796L97.9256 105.969ZM101.816 108.871C101.821 108.804 101.825 108.737 101.867 108.705L102.109 108.648C101.988 108.677 101.862 108.772 101.816 108.871ZM143.791 127.591C143.763 127.421 143.697 127.216 143.669 127.047C143.827 127.054 143.985 127.061 144.143 127.068C144.009 127.298 143.921 127.428 143.791 127.591ZM141.244 124.177C140.965 124.198 140.606 124.216 140.327 124.237C140.248 124.233 140.136 124.127 140.136 124.127C140.183 124.028 140.275 123.83 140.354 123.834C140.633 123.813 140.987 123.862 141.224 123.873C141.257 123.976 141.253 124.043 141.244 124.177ZM156.305 117.817C156.189 117.778 155.994 117.735 155.877 117.696C155.877 117.696 155.886 117.562 155.928 117.53C156.086 117.537 156.244 117.545 156.365 117.516C156.361 117.583 156.314 117.682 156.305 117.817ZM167.705 116.982C167.269 117.568 166.622 117.741 165.803 117.536C166.187 116.543 166.187 116.543 167.49 116.636C167.527 116.671 167.593 116.876 167.705 116.982ZM166.206 114.49C164.518 114.819 164.518 114.819 163.539 115.818C163.158 116.172 162.931 116.599 162.551 116.952C162.337 117.178 162.045 117.401 161.719 117.521C161.598 117.549 161.212 117.397 161.142 117.259C160.814 116.235 160.371 115.743 159.418 115.768C158.585 115.764 157.781 115.93 156.902 116.025C153.828 116.325 150.88 117.102 147.739 116.624C147.307 116.571 146.823 116.684 146.381 116.765C145.023 116.906 143.624 117.079 142.228 117.184C141.391 117.248 140.475 117.308 139.74 117.039C138.268 116.501 136.831 116.639 135.333 116.504C132.728 116.32 130.118 116.203 127.522 115.884C125.042 115.604 122.571 115.19 120.063 114.741C118.22 114.422 116.373 114.171 114.669 113.556C112.5 112.785 110.326 112.081 108.097 111.611C107.743 111.561 107.315 111.441 107.133 111.197C106.587 110.466 105.708 110.561 104.88 110.49C104.564 110.476 104.257 110.327 103.442 110.055C105.013 109.688 106.06 109.466 107.106 109.243C107.668 109.134 108.235 108.957 108.747 109.014C109.18 109.067 109.553 109.42 110.051 109.679C109.98 108.968 110.049 108.534 110.802 108.534C111.081 108.513 111.356 108.559 111.593 108.569C112.624 107.976 113.811 108.029 114.973 107.846C116.415 107.641 117.847 107.571 119.083 106.886C119.795 106.918 120.502 107.017 121.181 106.946C124.897 106.541 128.566 106.234 132.325 106.369C134.195 106.285 136.069 106.133 137.93 106.183C138.999 106.198 140.125 105.979 141.117 106.562C140.629 106.742 140.099 106.954 139.611 107.134C140.212 107.633 140.933 107.53 141.645 107.562C144.254 107.68 146.864 107.797 149.165 108.978C150.161 109.494 151.301 109.646 152.104 108.908C153.189 109.293 154.074 109.703 155.046 109.982C157.192 110.517 159.388 110.885 161.534 111.419C163.517 112.013 165.291 112.766 166.206 114.49ZM147.223 99.4965C147.19 99.3941 147.157 99.2916 147.166 99.1573C147.324 99.1644 147.441 99.2033 147.599 99.2104L147.665 99.4154C147.502 99.4754 147.344 99.4683 147.223 99.4965ZM152.048 100.286C151.89 100.279 151.695 100.236 151.536 100.229C151.578 100.197 151.625 100.098 151.666 100.066C151.824 100.074 152.02 100.116 152.178 100.123C152.132 100.222 152.127 100.289 152.048 100.286ZM151.996 97.5224C153.121 97.3036 153.121 97.3036 153.801 97.8055C153.173 97.71 152.819 97.6604 151.996 97.5224ZM157.984 98.1281C159.671 97.7998 161.101 98.3691 162.539 98.804C159.86 99.1214 159.274 98.9941 157.984 98.1281ZM165.395 101.155C165.233 101.215 165.033 101.239 164.875 101.232C164.758 101.193 164.688 101.055 164.576 100.949C164.739 100.889 164.943 100.798 165.06 100.836C165.255 100.879 165.284 101.049 165.395 101.155ZM165.414 99.1015C165.172 99.158 164.856 99.1438 164.619 99.1332C164.54 99.1296 164.474 98.9247 164.404 98.7868C164.804 98.7374 165.167 98.6527 165.688 98.5751C165.549 98.8719 165.535 99.0733 165.414 99.1015ZM168.099 99.2895L168.149 99.1234L168.303 99.1976L168.099 99.2895ZM180.332 99.0309C180.206 99.1262 180.081 99.2216 179.96 99.2498C179.918 99.2816 179.811 99.1085 179.699 99.0024C179.862 98.9424 180.02 98.9495 180.183 98.8895L180.332 99.0309ZM183.589 99.5475C183.547 99.5793 183.389 99.5722 183.352 99.5369C183.277 99.4662 183.286 99.3319 183.216 99.1941C183.374 99.2012 183.532 99.2083 183.691 99.2154C183.644 99.3143 183.635 99.4486 183.589 99.5475ZM192.663 99.0797C194.858 98.8753 196.77 98.7591 198.766 99.1518C196.269 99.7131 194.325 99.7267 192.663 99.0797ZM200.608 98.8978C200.449 98.8907 200.333 98.8518 200.179 98.7776C200.342 98.7176 200.463 98.6893 200.626 98.6293C200.705 98.6328 200.784 98.6364 200.9 98.6753C200.775 98.7707 200.687 98.9014 200.608 98.8978ZM225.968 92.7307C225.448 92.8083 225.062 93.2287 224.533 93.4406C224.045 93.6207 223.51 93.8997 222.994 93.9102C221.245 93.9663 219.525 94.1921 217.832 94.5874C216.098 95.0146 214.406 95.4099 212.718 95.7382C211.793 95.9323 210.587 95.5751 210.306 96.8082C209.372 97.1367 208.466 97.6347 207.469 97.1185C206.702 97.3198 206.826 98.4364 205.719 98.3867C205.177 97.588 204.431 96.8811 204.583 95.8104C204.996 95.5597 205.409 95.3089 205.823 95.0581C204.916 94.9837 204.05 94.8775 203.176 94.9055C202.897 94.9267 202.6 95.2163 202.312 95.3717C202.601 95.7888 202.858 96.1033 203.072 96.4497C203.11 96.485 202.984 96.5804 202.896 96.7111C200.687 97.1169 198.458 96.6465 196.189 96.7802C196.099 96.3385 196.08 96.0346 196.019 95.7625C194.813 95.4053 193.796 95.7973 192.815 96.2246C193.21 96.2424 193.731 96.1648 193.686 96.8361C193.249 96.8502 192.807 96.9313 192.412 96.9136C192.254 96.9065 192.114 96.6308 191.964 96.4894L192.62 96.1822C191.084 96.0122 189.586 95.8776 188.009 95.7394C187.223 95.6367 186.381 95.7673 185.71 95.1311C185.816 94.7318 185.959 94.3679 186.061 94.0358C183.735 93.8303 181.459 93.4587 179.285 94.5395C178.629 94.8467 177.671 94.9384 177.145 94.5107C176.39 93.9381 175.627 94.0722 174.757 94.0331C173.218 93.9303 171.59 93.9581 170.165 93.3218C169.704 93.0991 169.067 93.1378 168.513 93.1129C167.801 93.0809 167.043 93.1479 166.294 93.0806C164.522 92.9 162.828 92.7229 161.106 92.3762C159.347 91.9941 157.482 92.0114 155.639 91.6929C152.545 91.1162 149.39 90.8399 146.291 90.3303C144.095 89.9623 141.949 89.4282 139.804 88.8941C137.388 88.2469 135.061 87.469 132.729 86.7582C131.602 86.4046 130.476 86.051 129.497 85.2663C129.636 84.9695 129.77 84.7399 129.909 84.4431C129.039 84.404 128.165 84.4321 127.058 84.3823C127.438 84.0291 127.615 83.7676 127.777 83.7076C130.125 83.005 132.477 82.2352 134.857 81.6351C137.075 81.095 139.4 80.728 141.646 80.3575C143.371 80.0646 145.19 80.1463 146.648 79.1008C146.941 78.8782 147.569 78.9738 147.969 78.9244C149.364 78.8187 150.759 78.713 152.122 78.5049C152.721 78.4308 153.339 78.0882 153.836 77.7738C154.459 77.3641 153.983 76.7703 154.019 76.2333C154.028 76.099 154.195 75.9718 154.413 75.6786C155.204 75.7141 156.111 75.7885 157.023 75.7958C156.89 76.5979 156.965 76.6686 157.769 76.5027C158.868 77.2591 160.046 77.4467 161.347 76.9664C161.751 76.8499 162.151 76.8005 162.556 76.684C163.636 77.1366 164.721 77.522 165.962 77.3421C166.347 76.9217 166.012 76.6036 165.672 76.3526C165.182 75.9603 165.596 75.7095 165.776 75.3809C165.427 75.2642 165.078 75.1475 164.729 75.0308C164.771 74.999 164.813 74.9673 164.892 74.9708C167.23 74.4025 167.347 74.4414 168.783 76.0883C168.965 76.3322 169.259 76.6821 169.575 76.6963C171.26 77.0076 172.972 77.4886 174.663 76.5208C176.828 77.3588 179.14 77.1932 181.429 77.3634C182.13 76.9572 182.87 77.1588 183.577 77.2579C185.774 77.6259 187.97 77.9939 190.129 78.3266C191.306 78.5141 192.618 78.472 193.661 78.8892C195.863 79.7625 198.218 80.1377 200.665 80.3149C200.939 80.3609 201.218 80.3398 201.488 80.4529C205.127 81.1887 208.729 81.8892 212.364 82.6922C218.07 83.9586 223.59 85.6206 227.952 89.1835C228.138 89.3602 228.413 89.4062 228.604 89.5158C228.636 91.4027 227.856 92.3778 225.968 92.7307ZM224.816 73.8577C224.653 73.9178 224.49 73.9778 224.332 73.9707C224.299 73.8682 224.308 73.7339 224.275 73.6315C224.434 73.6386 224.592 73.6457 224.792 73.621C224.825 73.7235 224.857 73.8259 224.816 73.8577ZM235.33 79.1111C235.135 79.0686 234.944 78.959 234.748 78.9166C234.79 78.8848 234.874 78.8212 234.957 78.7576C235.153 78.8001 235.386 78.8779 235.581 78.9203C235.497 78.9839 235.368 79.1464 235.33 79.1111ZM239.373 75.0166C239.215 75.0095 239.056 75.0024 238.898 74.9953C238.898 74.9953 238.866 74.8929 238.87 74.8257C238.991 74.7975 239.191 74.7728 239.312 74.7445C239.307 74.8117 239.34 74.9142 239.373 75.0166ZM250.247 74.3266C250.159 74.4573 250.108 74.6234 249.987 74.6517C249.745 74.7081 249.424 74.7611 249.187 74.7504C248.992 74.7079 248.81 74.4641 248.702 74.2909C248.665 74.2556 248.92 73.9977 249.041 73.9695C249.399 73.9519 249.753 74.0014 250.027 74.0474C250.177 74.1888 250.288 74.2948 250.247 74.3266ZM254.306 73.5325C253.892 73.7833 253.479 74.0341 252.991 74.2142C252.87 74.2424 252.637 74.1646 252.525 74.0586C252.451 73.9879 252.511 73.6876 252.59 73.6911C253.04 73.4757 253.524 73.3627 254.012 73.1826C254.161 73.324 254.194 73.4265 254.306 73.5325ZM251.454 64.6167C252.069 65.4861 253.015 66.1683 253.836 66.9459C254.283 67.37 254.735 67.727 255.141 68.1829C255.91 69.1266 255.671 70.3279 254.37 70.8082C253.31 71.232 252.274 71.8925 250.948 71.5636C250.557 71.4787 250.031 71.6234 249.585 71.7717C248.535 72.0612 247.517 72.4532 246.462 72.8098C246.147 73.3681 245.831 73.9263 245.475 74.5163C244.596 74.6115 243.754 74.7421 242.954 74.8408C242.669 76.1411 242.464 76.2329 241.123 75.5329C241.567 74.2398 243.493 74.4946 244.295 73.1839C242.5 73.3389 240.942 73.5046 239.388 73.6032C237.519 73.6876 235.64 73.9062 233.825 73.7574C231.774 73.5979 229.824 73.1063 227.703 73.3814C227.303 73.4308 226.8 73.2398 226.33 73.1514C225.507 73.0134 224.725 72.8436 223.86 72.7374C219.998 72.3619 216.076 72.2868 212.233 71.6428C209.957 71.2712 207.64 70.9314 205.365 70.5599C204.267 70.3759 203.21 70.1601 202.108 70.0432C196.715 69.4306 191.517 68.2881 186.244 67.0748C183.549 66.4488 180.864 65.6884 178.253 64.9987C175.33 64.2277 172.323 63.5203 169.813 61.9261C169.319 61.6009 168.612 61.5018 168.034 61.2402C166.372 60.5931 164.673 59.9108 162.932 59.2602C163.047 58.7266 163.153 58.3274 163.217 57.9599C163.328 57.4935 163.434 57.0942 163.498 56.7268C163.042 56.4369 162.776 56.2566 162.473 56.041C163.77 55.6279 163.812 55.5961 164.618 56.0026C165.689 56.5895 166.778 56.9077 168.02 56.7278C168.861 56.5973 169.051 56.1344 168.775 55.516C169.168 54.3889 170.079 53.8237 171.46 53.9195C171.777 53.9337 172.088 54.015 172.442 54.0646C172.865 53.6795 173.311 53.5312 173.925 53.8282C174.233 53.9767 174.736 54.1676 174.903 54.0404C176.101 53.3198 176.911 53.6593 177.811 54.4404C178.449 54.9741 178.966 54.9636 179.327 54.3065C179.818 53.4868 180.612 52.8828 181.436 53.0208C182.455 53.2012 183.137 52.4911 183.928 52.5267C184.459 52.8872 184.878 53.1417 185.032 53.216C187.212 52.6405 188.997 52.0473 190.865 53.1749C191.438 53.5037 191.93 53.2565 192.316 52.836C192.496 52.5075 192.714 52.2142 192.895 51.8857C194.156 52.0096 195.379 52.0983 196.64 52.2222C197.901 52.3462 199.19 52.6398 200.459 52.0571C200.663 51.9652 201.101 51.9512 201.212 52.0572C202.075 52.803 202.994 52.1036 203.827 52.1073C205.376 52.0759 206.993 51.6098 208.307 52.7126C208.457 52.854 208.968 52.9106 209.094 52.8153C209.967 52.2148 210.866 52.9959 211.833 52.77C211.797 50.9502 209.769 51.0275 208.586 50.3346C209.567 49.9073 210.301 49.6035 211.348 49.9536C212.633 50.3143 212.849 51.2331 213.153 52.0212C216.246 52.0254 218.927 52.8529 221.678 53.8182C222.096 53.5003 222.44 53.1117 222.928 52.9316C223.379 52.7162 223.974 52.7092 224.457 52.5963C224.83 52.9497 225.25 53.2042 225.887 53.1655C225.514 52.8121 225.095 52.5576 224.537 52.5998C223.973 52.1368 223.354 51.907 222.554 52.0057C222.275 52.0269 221.93 51.843 221.539 51.7581C222.945 50.3062 222.904 50.338 224.398 51.1122C225.893 51.8864 227.481 52.4627 229.322 52.2087C229.922 52.1347 230.629 52.2338 230.845 53.1525C230.092 53.1524 229.417 53.1557 228.701 53.1909C227.868 53.1872 227.077 53.1517 226.245 53.1479C226.782 54.0138 227.634 54.3214 228.69 54.5372C231.859 55.1846 234.977 55.998 237.688 57.5676C239.087 56.8223 240.218 57.1088 241.271 57.9642C241.872 58.4625 242.519 58.862 243.246 59.265C244.773 60.1417 246.385 60.9548 247.954 61.7996C249.449 62.5739 250.581 63.4328 251.454 64.6167ZM214.747 47.1771C214.989 47.1206 215.235 46.997 215.272 47.0323C215.422 47.1737 215.529 47.3468 215.674 47.5554C215.511 47.6154 215.306 47.7072 215.19 47.6683C215.041 47.5269 214.934 47.3538 214.747 47.1771ZM235.07 53.4433C235.111 53.4115 235.199 53.2808 235.237 53.3161C235.353 53.355 235.465 53.4611 235.581 53.5C235.54 53.5318 235.493 53.6307 235.414 53.6271C235.298 53.5882 235.186 53.4822 235.07 53.4433ZM239.068 48.2358L238.96 48.0626L239.193 48.1404L239.068 48.2358ZM241.129 48.261C241.049 48.2575 240.97 48.2539 240.891 48.2503C240.975 48.1868 241.063 48.056 241.142 48.0596C241.3 48.0667 241.417 48.1056 241.57 48.1798C241.412 48.1727 241.249 48.2328 241.129 48.261ZM241.775 48.088C241.775 48.088 241.775 48.088 241.858 48.0244C241.9 47.9927 241.979 47.9962 242.058 47.9997L241.775 48.088ZM258.35 51.0884C258.192 51.0813 257.95 51.1378 257.913 51.1024C257.694 50.8232 257.479 50.4769 257.26 50.1977C257.604 50.3815 257.991 50.5335 258.335 50.7173C258.415 50.7209 258.359 50.9541 258.35 51.0884ZM296.015 49.5142C296.447 48.9949 296.836 48.5074 297.23 47.9527C297.554 49.0446 297.387 49.1718 296.015 49.5142ZM299.362 46.3313C298.731 46.8753 297.983 47.3804 297.235 47.8855C295.774 47.7863 294.407 48.0616 292.842 48.934C294.093 49.1922 294.954 49.3655 295.894 49.5425C295.648 49.6661 295.444 49.7579 295.239 49.8497C292.195 50.8914 288.925 51.1486 285.876 52.2574C285.225 52.4975 284.402 52.3595 283.648 52.3593C281.341 52.4577 279.024 52.118 276.727 52.6545C276.486 52.711 276.169 52.6968 275.941 52.5519C273.715 51.4418 270.932 52.7309 268.761 51.3877C268.724 51.3523 268.603 51.3805 268.482 51.4088C267.329 51.458 266.217 51.4754 265.101 51.5599C264.901 51.5846 264.743 51.5775 264.543 51.6022C263.905 51.6409 263.226 51.7114 262.692 51.9904C261.619 52.6156 260.809 52.2762 259.696 51.7212C259.927 51.2266 260.159 50.7319 260.428 50.2726C259.92 50.1488 259.329 50.0886 258.827 49.8977C258.133 49.5972 257.608 49.7419 257.064 50.1552C254.928 49.4869 252.495 49.6806 250.553 48.4823C250.288 48.302 249.641 48.475 249.2 48.5562C248.679 48.6338 248.154 48.7786 247.87 48.8668C246.994 48.3225 246.439 47.7252 245.695 47.5907C244.169 47.2865 242.559 47.0458 241.051 47.0455C239.744 47.0204 238.613 46.7339 237.663 46.1189C236.252 45.2811 234.646 44.9733 232.999 44.6973C232.371 44.6017 231.701 44.538 231.077 44.3753C228.974 43.8094 226.837 43.1411 224.729 42.6423C218.246 41.139 211.957 39.1058 205.849 36.7439C199.857 34.421 193.963 31.833 188.416 28.7893C188.188 28.6444 188.002 28.4677 187.857 28.2592C187.782 28.1885 187.917 27.9588 188.014 27.6938C188.717 27.8601 189.382 27.991 190.006 28.1537C190.349 27.765 190.609 27.44 190.781 27.2457C192.422 27.0164 193.864 26.8118 195.305 26.6072C195.88 25.724 196.927 26.074 197.769 25.9435C199.61 25.6895 201.272 26.3365 203.008 26.4818C203.166 26.4889 203.333 26.3617 203.496 26.3017C203.56 25.9343 203.625 25.5668 203.693 25.1322C204.805 25.1147 205.8 25.0584 206.754 25.0339C207.076 25.5534 207.328 25.9351 207.58 26.3168C210.846 26.6992 210.846 26.6992 212.506 26.2014C211.709 25.6606 210.472 25.7733 209.656 24.9286C211.051 24.8229 212.117 24.9045 213.155 25.3888C214.235 25.8413 215.186 26.4564 216.567 26.5522C216.566 25.9797 216.556 25.5415 216.517 24.9338C217.327 25.2732 217.993 25.4041 218.487 25.7293C219.856 26.5989 221.401 26.6346 223.028 26.6067C224.14 26.5893 225.294 26.5401 226.359 26.6216C228.769 26.7635 231.128 27.0715 233.593 26.9802C235.142 26.9488 236.752 27.1894 238.32 27.4619C238.948 27.5574 239.438 27.9498 240.015 28.2114C240.804 27.6745 241.637 27.6782 242.35 28.2826C241.987 28.3673 241.583 28.4838 241.22 28.5685C241.719 28.8266 242.086 28.6748 242.387 28.318C244.717 27.8839 247.397 28.1389 249.803 28.9204C250.19 29.0724 250.576 29.2245 250.925 29.3412C251.125 29.3165 251.283 29.3236 251.483 29.2989C252.747 28.7833 253.938 28.7694 255.205 29.3987C255.82 29.6957 256.597 29.9326 257.271 29.9292C259.457 29.8591 261.436 30.5203 263.456 31.1498C264.35 31.4256 265.239 31.7686 266.113 31.7405C266.709 31.7336 267.22 31.7902 267.774 31.8151C269.509 31.9604 271.227 32.3742 272.902 32.8198C274.461 33.2265 275.858 33.6933 276.977 34.7536C277.722 35.4605 278.644 35.906 279.919 35.8285C280.514 35.8216 281.129 36.1186 281.711 36.313C282.642 36.6242 283.61 36.9707 284.541 37.2819L284.578 37.3173C285.509 37.6284 286.482 37.9078 287.325 38.3497C290.398 39.8345 293.43 41.3511 296.415 42.9666C297.411 43.4828 298.227 44.3275 299.052 45.0379C299.821 45.4091 299.784 45.9462 299.362 46.3313Z"
        fill="#DEE2E6"
    />
</svg>